<svg xmlns="http://www.w3.org/2000/svg" xmlns:xlink="http://www.w3.org/1999/xlink" width="249" height="82" viewBox="0 0 249 82"><defs><path id="fzqea" d="M920.994 522.988h80.083v11.96h-46.005v23.917h46.005v11.958h11.927v22.208h-11.927v11.96H932.92v-11.96h-11.927v-11.956h34.078v11.956h23.854v-22.208h-57.932z"/><path id="fzqeb" d="M829 546v-11h11v-12h60v12h11v23h-12v12h12v23h-11v12h-60v-11h-11v-24h11v23h36v-23h-23v-12h23v-23h-35v11z"/><path id="fzqec" d="M1045 578v-22h-22v-11h22v-22h11v22h22v11h-22v22z"/></defs><g><g transform="translate(-829 -523)"><use fill="#ff3586" xlink:href="#fzqea"/><use fill="#fef502" xlink:href="#fzqea"/></g><g transform="translate(-829 -523)"><use fill="#fef502" xlink:href="#fzqeb"/></g><g transform="translate(-829 -523)"><use fill="#fef502" xlink:href="#fzqec"/></g></g></svg>