<?xml version="1.0" encoding="UTF-8"?><!DOCTYPE svg PUBLIC "-//W3C//DTD SVG 1.1//EN" "http://www.w3.org/Graphics/SVG/1.1/DTD/svg11.dtd"><svg xmlns="http://www.w3.org/2000/svg" xmlns:xlink="http://www.w3.org/1999/xlink"><defs><path id="s3zea" d="M471 593v-58h12v-12h70v12h12v11h-12v-11h-47v23h47v12h12v23h-12v12h-70v-12zm59 0v-23h-24v23z"/><path id="s3zeb" d="M426 605h35v-82h-47v12h12z"/><path id="a" d="M1033.004 1606.916v-11.954h11.925v-11.955h68.143v11.955h11.925v23.907h-11.925v11.955h-45.997v22.2h57.922v11.956h-91.993v-34.156h11.925v-11.955h45.997v-23.907h-23.85v11.954z"/><path id="fzqea" d="M920.994 522.988h80.083v11.96h-46.005v23.917h46.005v11.958h11.927v22.208h-11.927v11.96H932.92v-11.96h-11.927v-11.956h34.078v11.956h23.854v-22.208h-57.932z"/><path id="fzqeb" d="M829 546v-11h11v-12h60v12h11v23h-12v12h12v23h-11v12h-60v-11h-11v-24h11v23h36v-23h-23v-12h23v-23h-35v11z"/><path id="fzqec" d="M1045 578v-22h-22v-11h22v-22h11v22h22v11h-22v22z"/><path id="10iba" d="M1017.003 580.949h11.925v-11.96h68.142v11.96h11.924v58.082h-11.924v11.96h-68.142v-11.96h-11.925zm34.07 58.082h23.85V580.95h-23.85z"/><path id="10ibb" d="M914.994 568.988h80.083v11.96h-46.005v23.917h46.005v11.958h11.927v22.208h-11.927v11.96h-68.156v-11.96h-11.927v-11.955h34.078v11.955h23.854v-22.208h-57.932z"/><path id="10ibc" d="M823 592v-11h11v-12h60v12h11v23h-12v12h12v23h-11v12h-60v-11h-11v-24h11v23h36v-23h-23v-12h23v-23h-35v11z"/>
    <path id="emc1a" d="M1135.003 1947.949h11.925v-11.96h68.142v11.96h11.924v58.082h-11.924v11.96h-68.142v-11.96h-11.925zm34.07 58.082h23.85v-58.082h-23.85z"/>
    <path id="emc1b" d="M1237.003 1947.949h11.925v-11.96h68.141v11.96h11.925v58.082h-11.925v11.96h-68.141v-11.96h-11.925zm34.07 58.082h23.85v-58.082h-23.85z"/>
    <path id="emc1c" d="M1032.994 1935.989h80.083v11.96h-46.005v23.917h46.005v11.957h11.927v22.208h-11.927v11.96h-68.156v-11.96h-11.927v-11.955h34.078v11.955h23.854v-22.208h-57.932z"/>
  <path id="6wa4a" d="M465 639v-58h12v-12h70v12h12v11h-12v-11h-47v23h47v12h12v23h-12v12h-70v-12zm59 0v-23h-24v23z"/><path id="o9aza" d="M1423 8154v-6h6v6zm-6-6v-6h6v6zm0 12v-6h6v6zm-6 6v-6h6v6zm0-24v-6h6v6z"/><path id="f2c3a" d="M1308 8154v-6h6v6zm6-6v-6h6v6zm0 12v-6h6v6zm6 6v-6h6v6zm0-24v-6h6v6z"/><path id="4ia8a" d="M265 4201.398h1.8v-3.599h3.6v-1.8h7.2v1.8h3.6v3.6h1.8v7.2h-1.8v3.6h-3.6v1.8h-1.8v-7.2h3.6v-5.4h-1.8v-1.8h-1.8v1.8h-3.6v-1.8h-1.8v1.8h-1.8v5.4h3.6v1.8h-3.6v1.8h3.6v3.6h-1.8v-1.8h-3.6v-3.6H265z"/><path id="6142a" d="M293 4199.428v-2.429h4.889v2.429h2.444v2.428h2.445v2.429h2.444v-2.834h2.445V4197H315v2.429h-2.445v12.142H315v2.428h-9.778v-2.428h2.445v-4.857h-2.445v4.857h-2.444v-2.428h-2.445v-2.429h-2.444v4.857h2.444v2.428H293v-2.428h2.444v-12.142z"/>

  </defs><symbol id="icon-16" viewBox="0 0 151 82"><g><g transform="translate(-414 -523)"><use xlink:href="#s3zea"/></g><g transform="translate(-414 -523)"><use xlink:href="#s3zeb"/></g></g></symbol><symbol id="icon-2" viewBox="0 0 92 82"><g transform="translate(-1033 -1583)"><use xlink:href="#a"/><use xlink:href="#a"/></g></symbol><symbol id="icon-35" viewBox="0 0 249 82"><g><g transform="translate(-829 -523)"><use xlink:href="#fzqea"/><use xlink:href="#fzqea"/></g><g transform="translate(-829 -523)"><use xlink:href="#fzqeb"/></g><g transform="translate(-829 -523)"><use xlink:href="#fzqec"/></g></g></symbol><symbol id="icon-350" viewBox="0 0 286 82"><g><g transform="translate(-823 -569)"><use xlink:href="#10iba"/><use xlink:href="#10iba"/></g><g transform="translate(-823 -569)"><use xlink:href="#10ibb"/><use xlink:href="#10ibb"/></g><g transform="translate(-823 -569)"><use xlink:href="#10ibc"/></g></g></symbol><symbol id="icon-500" viewBox="0 0 296 82">
  
  <g>
    <g transform="translate(-1033 -1936)">
      <use xlink:href="#emc1a"/>
      <use xlink:href="#emc1a"/>
    </g>
    <g transform="translate(-1033 -1936)">
      <use xlink:href="#emc1b"/>
      <use xlink:href="#emc1b"/>
    </g>
    <g transform="translate(-1033 -1936)">
      <use xlink:href="#emc1c"/>
      <use xlink:href="#emc1c"/>
    </g>
  </g>
</symbol><symbol id="icon-6" viewBox="0 0 94 82"><g><g transform="translate(-465 -569)"><use xlink:href="#6wa4a"/></g></g></symbol><symbol id="icon-arrow-next" viewBox="0 0 18 30"><g><g transform="translate(-1411 -8136)"><use xlink:href="#o9aza"/><use xlink:href="#o9aza"/></g></g></symbol><symbol id="icon-arrow-prev" viewBox="0 0 18 30"><g><g transform="translate(-1308 -8136)"><use xlink:href="#f2c3a"/><use xlink:href="#f2c3a"/></g></g></symbol><symbol id="icon-fb" viewBox="0 0 19.7 37.7"><path fill-rule="evenodd" clip-rule="evenodd" d="M3.9 37.7h7.9V20.9h3.9v-8.4h-3.9V8.4h7.9V0H7.9v4.2h-4v8.4H0V21h3.9v16.7z"/></symbol><symbol id="icon-gh" viewBox="0 0 18 18"><g><g opacity=".9" transform="translate(-265 -4196)"><use xlink:href="#4ia8a"/><use xlink:href="#4ia8a"/></g></g></symbol><symbol id="icon-gn" viewBox="0 0 234.5 40.35">
  <path d="M34.39 36.16a22.68 22.68 0 0 1-13.58 4.2 23.57 23.57 0 0 1-8.6-1.48 19.64 19.64 0 0 1-6.55-4.11 18.36 18.36 0 0 1-4.2-6.31 21.67 21.67 0 0 1-1.46-8 22.34 22.34 0 0 1 1.43-8.11 17.81 17.81 0 0 1 4-6.34 18.81 18.81 0 0 1 6.35-4.08A22.92 22.92 0 0 1 20.16.47a23.67 23.67 0 0 1 4.4.37 23.07 23.07 0 0 1 3.74 1 17.66 17.66 0 0 1 5.89 3.62l-1.8 2.91a1.77 1.77 0 0 1-1.11.83 2 2 0 0 1-1.49-.31c-.51-.31-1.06-.63-1.66-1a12.24 12.24 0 0 0-2-1 13.84 13.84 0 0 0-2.63-.74 18.35 18.35 0 0 0-3.54-.29 14.48 14.48 0 0 0-5.57 1 11.51 11.51 0 0 0-4.23 2.88 12.5 12.5 0 0 0-2.72 4.59 17.12 17.12 0 0 0-1 6 18.33 18.33 0 0 0 1 6.22 13.31 13.31 0 0 0 2.86 4.68 12 12 0 0 0 4.49 2.91 15.83 15.83 0 0 0 5.83 1 16.42 16.42 0 0 0 4.32-.51 19.14 19.14 0 0 0 3.72-1.43v-7.76h-5.42a1.42 1.42 0 0 1-1-.34 1.18 1.18 0 0 1-.34-.88v-3.6h12.52zM47.46 12.27v27.65h-5.83V12.27zm1-8.36a3.73 3.73 0 0 1-.31 1.48 4.29 4.29 0 0 1-.86 1.23 4.67 4.67 0 0 1-1.26.86 4 4 0 0 1-1.54.31A3.65 3.65 0 0 1 43 7.48a4 4 0 0 1-1.2-.86 3.91 3.91 0 0 1-1.14-2.71 3.77 3.77 0 0 1 .31-1.51 4.18 4.18 0 0 1 .83-1.26A3.92 3.92 0 0 1 43 .31 3.65 3.65 0 0 1 44.49 0a4 4 0 0 1 1.54.31 4.57 4.57 0 0 1 1.26.83 4.88 4.88 0 0 1 .86 1.26 3.77 3.77 0 0 1 .31 1.51zM63.98 40.35a7.07 7.07 0 0 1-5.32-1.94 7.59 7.59 0 0 1-1.86-5.45V16.83h-3a1.27 1.27 0 0 1-.86-.31 1.19 1.19 0 0 1-.34-.94v-2.34l4.49-.66 1.26-8a1.74 1.74 0 0 1 .46-.77 1.42 1.42 0 0 1 .89-.26h3v9.08h7.69v4.2h-7.75v15.7a3.23 3.23 0 0 0 .74 2.28 2.58 2.58 0 0 0 1.94.8 3.46 3.46 0 0 0 1.17-.2 4.83 4.83 0 0 0 .86-.37l.6-.37a.92.92 0 0 1 .51-.17.87.87 0 0 1 .77.54l1.74 2.83a9.1 9.1 0 0 1-3.2 1.83 11.58 11.58 0 0 1-3.8.66zM82.02.88a5.3 5.3 0 0 1 .71 0 3.46 3.46 0 0 1 .51.14 1.28 1.28 0 0 1 .46.34 3 3 0 0 1 .46.54l21.53 27.57c-.06-.57-.09-1.11-.11-1.66s-.06-1.06-.06-1.51V.88h5.57v39h-3.23a2.82 2.82 0 0 1-1.26-.26 3 3 0 0 1-1-.86L84.1 11.19c.06.54.11 1.06.14 1.57s0 1 0 1.43v25.69h-5.6v-39zM136.42 39.92a2.51 2.51 0 0 1-1.26-.26 2 2 0 0 1-.74-1.06l-.57-2.25a21.25 21.25 0 0 1-2.09 1.71 13.56 13.56 0 0 1-2.14 1.26 10.27 10.27 0 0 1-2.34.77 14.18 14.18 0 0 1-2.8.26 10 10 0 0 1-3.12-.46 6.76 6.76 0 0 1-2.52-1.4 6.91 6.91 0 0 1-1.69-2.31 8.26 8.26 0 0 1-.6-3.25 6.33 6.33 0 0 1 .86-3.14 7.86 7.86 0 0 1 2.83-2.71 18.11 18.11 0 0 1 5.17-2 37.57 37.57 0 0 1 7.95-.88v-1.86a6.57 6.57 0 0 0-1.29-4.45 4.67 4.67 0 0 0-3.74-1.46 9 9 0 0 0-2.83.4 16.06 16.06 0 0 0-2 .91c-.57.34-1.06.63-1.49.91a2.52 2.52 0 0 1-1.4.43 1.67 1.67 0 0 1-1-.31 2.65 2.65 0 0 1-.71-.77l-1.06-1.88a15.91 15.91 0 0 1 11.21-4.37 11.12 11.12 0 0 1 4.26.74 8.8 8.8 0 0 1 3.12 2.2 9.64 9.64 0 0 1 1.92 3.34 13 13 0 0 1 .69 4.31v17.58zm-10.18-3.65a8.35 8.35 0 0 0 3.92-.86 12.33 12.33 0 0 0 3.2-2.43v-5.17a39.45 39.45 0 0 0-5.26.51 15.2 15.2 0 0 0-3.49 1 5 5 0 0 0-1.92 1.46 3.21 3.21 0 0 0-.57 1.83 3.64 3.64 0 0 0 .31 1.66 2.69 2.69 0 0 0 .86 1.14 3.36 3.36 0 0 0 1.32.66 5.79 5.79 0 0 0 1.63.2zM154.34 40.35a7 7 0 0 1-5.29-1.94 7.47 7.47 0 0 1-1.86-5.45V16.83h-3.05a1.25 1.25 0 0 1-.83-.31 1.11 1.11 0 0 1-.37-.94v-2.34l4.49-.66 1.29-8a1.51 1.51 0 0 1 .46-.77 1.39 1.39 0 0 1 .86-.26h3v9.08h7.69v4.2h-7.69v15.7a3.1 3.1 0 0 0 .74 2.28 2.54 2.54 0 0 0 1.94.8 3.59 3.59 0 0 0 1.17-.2 4.5 4.5 0 0 0 .83-.37c.26-.14.46-.26.63-.37a.91.91 0 0 1 .49-.17.87.87 0 0 1 .8.54l1.74 2.83a9 9 0 0 1-3.23 1.83 11.45 11.45 0 0 1-3.8.66zM172.67 12.27v27.65h-5.83V12.27zm1-8.36a3.3 3.3 0 0 1-.31 1.48 3.4 3.4 0 0 1-.86 1.23 4.27 4.27 0 0 1-1.26.86 4 4 0 0 1-1.54.31 3.61 3.61 0 0 1-1.46-.31 3.8 3.8 0 0 1-1.23-.86 4.22 4.22 0 0 1-.83-1.23 3.73 3.73 0 0 1 0-3 4.8 4.8 0 0 1 .83-1.26 3.73 3.73 0 0 1 1.23-.83 3.61 3.61 0 0 1 1.46-.31 4 4 0 0 1 1.54.31 4.18 4.18 0 0 1 1.26.83 3.78 3.78 0 0 1 .86 1.26 3.34 3.34 0 0 1 .31 1.51zM191.99 11.81a14.48 14.48 0 0 1 5.57 1 11.73 11.73 0 0 1 4.23 2.83 12.59 12.59 0 0 1 2.69 4.48 16.85 16.85 0 0 1 1 5.91 16.63 16.63 0 0 1-1 5.91 12.35 12.35 0 0 1-2.69 4.48 11.86 11.86 0 0 1-4.23 2.88 16.05 16.05 0 0 1-11.15 0 12.23 12.23 0 0 1-4.26-2.88 12.81 12.81 0 0 1-2.72-4.48 17.31 17.31 0 0 1-.94-5.91 17.54 17.54 0 0 1 .94-5.91 13.08 13.08 0 0 1 2.72-4.48 12.09 12.09 0 0 1 4.26-2.83 14.48 14.48 0 0 1 5.57-1zm0 23.94a6.46 6.46 0 0 0 5.6-2.51c1.2-1.66 1.83-4.05 1.83-7.16a12.26 12.26 0 0 0-1.83-7.19 7.48 7.48 0 0 0-11.23 0c-1.23 1.68-1.86 4.08-1.86 7.19s.63 5.51 1.86 7.16a6.51 6.51 0 0 0 5.63 2.51zM210.86 39.92V12.27h3.54a1.43 1.43 0 0 1 1.52 1.11l.4 2.57a16.82 16.82 0 0 1 1.83-1.68 13.18 13.18 0 0 1 2.06-1.31 12.38 12.38 0 0 1 2.32-.83 11.38 11.38 0 0 1 2.69-.31 9.72 9.72 0 0 1 4 .77 8.4 8.4 0 0 1 2.92 2.14 9.44 9.44 0 0 1 1.77 3.31 14.62 14.62 0 0 1 .6 4.28v17.61h-5.83V22.31a6.45 6.45 0 0 0-1.29-4.34 4.82 4.82 0 0 0-3.92-1.54 7.51 7.51 0 0 0-3.63.88 13.07 13.07 0 0 0-3.14 2.45v20.15z"/>
</symbol><symbol id="icon-med" viewBox="0 0 22 17"><g><g transform="translate(-293 -4197)"><use xlink:href="#6142a"/><use xlink:href="#6142a"/></g></g></symbol><symbol id="icon-play-video" viewBox="0 0 149 113">
  
  <g>
    <g transform="translate(-646 -2447)">
      <path id="le62a" d="M666 2552v-12.005h-12v-81h12V2447h117v11.995h12v81h-12V2552zm44-24.003h13v-57h-13zM736 2517v-11h13v-13h-13v-11h-13v35z"/>
    </g>
    <g transform="translate(-646 -2447)" class="icon__border">
      <path id="le62b" d="M646 2467h4v77h12v12h113v4H658v-12h-12z"/>
    </g>
  </g>
</symbol><symbol id="icon-plus" viewBox="0 0 36 36"><path d="M12 0h12v12h12v12H24v12H12V24H0V12h12V0z"/><path d="M12 0h12v12h12v12H24v12H12V24H0V12h12V0z"/></symbol><symbol id="icon-site" viewBox="0 0 34 34"><path data-name="Rounded Rectangle 1 copy" class="jcls-1" d="M30.2 12.1l.3.2h.281v-.5l.887-.1.843.6H33.9l.1-.1c-.139-.4-.295-.9-.47-1.3h-.9l-.454-.5-.087-.8-.465.3-.249.9-.671-.7-.027-.6-.647-.6-.239-.2h-.75l.236.6.9.5.157.2-.2.1.009.5-.44.2-.376-.1-.235-.3h.612l.165-.2-1.355-.9-.1-.4-.55.5-.557-.1-.849 1.1-.168.4h-1.346l-.481-.2-.142-.9.173-.5.818-.1.892.1.109-.4-.379-.1.129-.8.9-.1.628-.9.648-.1.585.1h.216l-.12-.8-.71.3-.251-.7h-.413l-.077-.4.336-.4.8-.3.206-.4A17.664 17.664 0 0 0 17.353 0a17.154 17.154 0 0 0-10.2 3.3l.876-.1.39.3.735.1.057.3h1.169l-.159-.3-1.038-.1.244-.2-.085-.2h-.938l1.023-.8h.981l.461.6.765.1.461-.5.347.2-.636.6h-.836a2.861 2.861 0 0 1 .073.6h1.066l.115-.3h.735l.087-.5h-.432l.144-.4.331-.1h1.154l-.636.6.1.4.663.1-.043-.7.635-.4 1.125-.1 1.629.7v.6l.519.1-.26.5h-.736l-.218.6-1.679-.4 1.321-.7-.5-.4-1.139.1-.1.1H14.9l-.328.4h-.543l.043.3.19.1h-.008l-.441.1-.033.3h-.421l-.077-.5-.756.2-1.547.9.174.6.432.3.865.1v1l.4-.1.369-.7.919-.3V5.2l.512-.4 1.236.3-.086.8h.332l.909-.4.044 1 .661.3-.028.6-.633.3.043.2.764.3-.016.4h-.223l-.964-.3-.041-.3.282-.2v-.3h-.3l-.076.2-.531.1h-.237l-.151-.3h-.552l-.172.1v.3l.324.1.32.1h-.072l-.292.3-.128-.1-.282-.1-.769.7.1.1-1.135.6-1.067 1.1-.073.5-1.07.7-.531.5.059 1-.735-.3v-.6H7.513l-1.06.5-.46.8-.183.7.3.6.835.1 1.327-.8.117.4-.406.7 1.011.2.1 1.5 1.384.3.88-1 1.068.2.375.5 1.023-.1.029-.3.563.3.635 1h1.1l.4.7.058.8 1.212.5h1.528l.448.7.677.2-.13.6-.742 1-.217 2-.67.5h-1l-.331.6.246 1-1.083 1.4-.345.6-1.032.5-.678.1-.028.3.476.1-.057.3-.427.4.259.3h.513l-.028.4-.137.4-.044.3.759.6-.1.4-1.033-.1-1.027-.8-.8-1.4.112-1.3-.606-.8.245-1.4-.36-.1V24s-1.009-.7-1.067-.7a5.3 5.3 0 0 1-.534-.2l-.1-.5L9.196 21l.13-.6.043-.9.909-.7-.13-1-1.327-.1-1.038-1.2-.735-.2-.476-.1.058-.4-.606-.1v.3l-1.515-.4-.61-.9.248-.5-.959-1.3-.164-1h-.389l.129.9.663 1-.073.4H2.8L2.108 13v-1.3l-.721-.4v-1A16.907 16.907 0 0 0 0 17a17.182 17.182 0 0 0 17.354 17 17.58 17.58 0 0 0 13.459-6.3h-.572v-1.1l-.663-.9v-1.3l-.5-.5-.045-.6.643-1.2-1.217-2.1.142-1.4-1.1-.2-.4-.3h-.736l-.374.3h-1.3l-.044.1h-.727l-1.657-1.8.014-1.5.274-.1.1-.5h-.39l-.159-.6 1.917-1.4v-.9l.939-.5h1.152l.605-.3 1.947-.2v1zM25.332 6l.158-.2.571-.1.142.6.3.5.2.3.367.1-.346.4-.671.1h-.5l.057-.6.419-.1-.035-.3-.391-.2-.273-.2V6zm-.937 1.1l.347-.6.467-.1.332.2-.03.3-.714.5h-.4v-.3zm-9.428 2.1h-.362l.02-.2.161-.2.217.1zm1.266-.5l-.246.1-.05.2-.19.1h-.3a.318.318 0 0 1-.017-.1h-.118v-.2h.5l.1-.3h.423z"/></symbol><symbol id="icon-sl" viewBox="0 0 43 42.9"><path fill-rule="evenodd" clip-rule="evenodd" d="M20.4 24.2l3.9-1.6-1.6-3.9-3.9 1.6 1.6 3.9zM3.9 17.3L0 18.8c2.6 6.5 5.3 12.9 7.9 19.4l3.9-1.6 1.6 3.9 3.9-1.6 1.6 3.9c6.5-2.7 13-5.3 19.5-7.9L36.8 31l3.9-1.6-1.6-3.9L43 24c-2.6-6.5-5.3-13-7.9-19.4l-3.9 1.6-1.6-3.9-3.9 1.6L24.2 0c-6.5 2.6-13 5.3-19.5 7.9l1.6 3.9-3.9 1.6 1.5 3.9zm7 6.1l-1.6-3.9 3.9-1.6-1.6-3.9 3.9-1.6 1.6 3.9 3.9-1.6-1.6-3.9 3.9-1.6 1.6 3.9 3.9-1.6 1.6 3.9-3.9 1.6 1.6 3.9 3.9-1.6 1.6 3.9-3.9 1.6 1.6 3.9-3.9 1.6-1.6-3.9-3.9 1.6 1.6 3.9-3.9 1.6-1.6-3.9-3.9 1.6-1.6-3.9 3.9-1.6-1.6-3.9-3.9 1.6z"/></symbol><symbol id="icon-tw" viewBox="0 0 42.9 34.2"><path fill-rule="evenodd" clip-rule="evenodd" d="M0 0v3.8h3.6v7.6h3.6V19h3.6v3.8h3.6v3.8H7.1v3.8h3.6v3.8H25v-3.8h3.6v-3.8h3.6v-3.8h3.6v-7.6h3.6V7.6H43V3.8h-7.2V0h-7.1v3.8H25v7.6h-3.6V7.6h-3.6V3.8h-3.6V0H0z"/></symbol><symbol id="icon-yt-icon" viewBox="0 0 149 113"><style>.st1{fill:#fff}</style><path id="yod7a" d="M20 105V93H8V12h12V0h117v12h12v81h-12v12H20zm44-24h13V24H64v57zm26-11V59h13V46H90V35H77v35h13z"/><path id="yod7a_1_" class="st1" d="M20 105V93H8V12h12V0h117v12h12v81h-12v12H20zm44-24h13V24H64v57zm26-11V59h13V46H90V35H77v35h13z"/><g><path id="yod7b" d="M0 20h4v77h12v12h113v4H12v-12H0V20z"/><path id="yod7b_1_" class="st1" d="M0 20h4v77h12v12h113v4H12v-12H0V20z"/></g></symbol><symbol id="icon-yt" viewBox="0 0 44.8 35.8"><path fill-rule="evenodd" clip-rule="evenodd" d="M18.7 8h3.7v4h3.7v4h3.7v4h-3.7v4h-3.7v4h-3.7V8zm-15-8v4H0v27.8h3.7v4h37.4v-4h3.7V4h-3.7V0H3.7z"/></symbol></svg>