<svg xmlns="http://www.w3.org/2000/svg" xmlns:xlink="http://www.w3.org/1999/xlink" width="397" height="234">
  <defs>
    <path id="a"
          d="M115.088 6924.385v-5.075h5.075v-5.076h10.15v5.076h5.075v15.224h-5.075v5.075h-10.15v-5.075h5.075v-10.149z"/>
    <path id="b"
          d="M187.088 6925.386v-5.076h5.075v-5.075h10.15v5.075h5.075v15.223h-5.075v5.075h-10.15v-5.075h5.075v-10.147z"/>
    <path id="c"
          d="M202.537 6925.386v-5.076h5.075v-5.075h10.15v5.075h5.075v15.223h-5.075v5.075h-10.15v-5.075h5.075v-10.147z"/>
    <path id="d" d="M72 6903.993h12v-5.999h12v-6h6v6h12v6h12v36h-6v12h-6v6.001h-6v6H90v-6h-6v-6h-6v-12.002h-6z"/>
    <path id="e"
          d="M96 6953v-6h6v6zm-6-6v-6h6v6zm12 0v-6h6v6zm-19.985-25.503l4.326-4.242 4.326-4.243 4.325 4.243-4.325 4.242 4.325 4.243-4.325 4.243-4.326-4.243zm19 0l4.326-4.242 4.326-4.243 4.325 4.243-4.325 4.242 4.325 4.243-4.325 4.243-4.326-4.243z"/>
    <path id="f" d="M167 7041v-10h10v10z"/>
    <path id="g" d="M105 7041v-10h10v10z"/>
    <path id="h" d="M43 7041v-10h10v10z"/>
    <path id="i" d="M43 7099v-10h10v10z"/>
    <path id="j" d="M43 6875v-10h10v10z"/>
    <path id="k" d="M43 6933v-10h10v10z"/>
    <path id="l"
          d="M238 6953.997v-28h4v-4h8v8h-4v4h8v-4h4v-12h-4v-4h-8v4h-4v-4h4v-4.002h4v-3.998h4v-4h20v4h4v3.998h4v4.002h4v12h4v28h-4v-4h-4v-4h-4v4h-4v4h-4v-4h-4v-4h-4v4h-4v4h-4v-4h-4v-4h-4v4h-4v4zm28-32h8v8h-4s.03 3.886.002 3.998c.15-.036 7.998.001 7.998.001v-4h4v-12h-4v-3.999h-8v4h-4zm4 12c0 .001.001.001.002-.002l-.002.001z"/>
    <path id="m"
          d="M238 7035.996v-28h4v-3.999h8v8h-4v4h8v-4h4v-12h-4v-4h-8v4h-4v-4h4v-4h4v-4h4v-4h20v4h4v4h4v4h4v12h4v28h-4v-4h-4v-4h-4v4h-4v4h-4v-4h-4v-4h-4v4h-4v4h-4v-4h-4v-4h-4v4h-4v4zm28-31.999h8v8h-4s.03 3.887.002 4c.15-.039 7.998 0 7.998 0v-4h4v-12h-4v-4h-8v4h-4zm4 12c0 .002.001.002.002 0H270z"/>
    <path id="n"
          d="M156 6953.997v-28h4v-4h8v8h-4v4h8v-4h4v-12h-4v-4h-8v4h-4v-4h4v-4.002h4v-3.998h4v-4h20v4h4v3.998h4v4.002h4v12h4v28h-4v-4h-4v-4h-4v4h-4v4h-4v-4h-4v-4h-4v4h-4v4h-4v-4h-4v-4h-4v4h-4v4zm28-32h8v8h-4s.03 3.887.002 3.998c.15-.036 7.998.001 7.998.001v-4h4v-12h-4v-3.999h-8v4h-4zm4 12c0 .001.001.001.002-.002l-.002.001z"/>
    <path id="o" d="M90 6870h4v8h-4zm4 12v-4h254v4zm0-12v-4h254v4z"/>
    <path id="p" d="M205 6978h4v8h-4zm-254 12v-4h254v4zm0-12v-4h254v4z"/>
    <path id="q" d="M90 7086h4v8h-4zm4 12v-4h254v4zm0-12v-4h254v4z"/>
  </defs>

  <g fill="#fef502" transform="translate(49 -6865)">
    <use xlink:href="#d"/>
    <use xlink:href="#d"/>
  </g>
  <g transform="translate(49 -6865)">
    <use xlink:href="#e"/>
    <use fill="#dd0002" xlink:href="#e"/>
  </g>
  <use fill="#fef502" xlink:href="#f" transform="translate(49 -6865)"/>
  <use fill="#fef502" xlink:href="#g" transform="translate(49 -6865)"/>
  <use fill="#fef502" xlink:href="#h" transform="translate(49 -6865)"/>
  <use fill="#fef502" xlink:href="#i" transform="translate(49 -6865)"/>
  <use fill="#fef502" xlink:href="#j" transform="translate(49 -6865)"/>
  <use fill="#fef502" xlink:href="#k" transform="translate(49 -6865)"/>
  <g transform="translate(49 -6865)">
    <use fill="#fef502" xlink:href="#l"/>
    <use fill="#fff" xlink:href="#l"/>
  </g>
  <g transform="translate(49 -6865)">
    <use fill="#fef502" xlink:href="#m"/>
    <use fill="#fff" xlink:href="#m"/>
  </g>
  <g transform="translate(49 -6865)">
    <use fill="#fef502" xlink:href="#n"/>
    <use fill="#fff" xlink:href="#n"/>
  </g>
  <g transform="translate(49 -6865)">
    <use fill="#fef502" xlink:href="#o"/>
    <use fill="#fff" xlink:href="#o"/>
  </g>
  <g transform="translate(49 -6865)">
    <use fill="#fef502" xlink:href="#p"/>
    <use fill="#fff" xlink:href="#p"/>
  </g>
  <g transform="translate(49 -6865)">
    <use fill="#fef502" xlink:href="#q"/>
    <use fill="#fff" xlink:href="#q"/>
  </g>
</svg>
