<svg width="26" height="36" xmlns="http://www.w3.org/2000/svg"><g fill-rule="nonzero" fill="none"><path d="M26 10.29v10.25h-5.19v.026h-.01V30.85H5.19V20.54h.005V5.14H26v5.14h-5.19v.01H26zM9.567 9.46v6.787h6.871V9.46H9.567zM0 10.28V5.14h5.19v5.14H0zm0 .01h5.19v10.25H0V10.29zm5.19-5.15V0H20.8v5.14H5.19zM10.42 36v-5.14h5.19V36h-5.19z" fill="#260000"/><path d="M26 10.29v10.25h-5.19v.026h-.01V30.85H5.19V20.54h.005V5.14H26v5.14h-5.19v.01H26zM9.567 9.46v6.787h6.871V9.46H9.567zM0 10.28V5.14h5.19v5.14H0zm0 .01h5.19v10.25H0V10.29zm5.19-5.15V0H20.8v5.14H5.19zM10.42 36v-5.14h5.19V36h-5.19z" fill="#FFF"/></g></svg>